<svg width="304" height="54" viewBox="0 0 304 54" fill="none" xmlns="http://www.w3.org/2000/svg">
<path d="M4.73011 43V10.2727H22.9954V12.1264H6.72763V25.6935H21.4773V27.5472H6.72763V43H4.73011ZM25.748 43H23.6386L35.4479 10.2727H37.749L49.5583 43H47.449L36.6784 12.8455H36.5186L25.748 43ZM28.7362 30.6793H44.4607V32.533H28.7362V30.6793ZM73.3048 18.4545C73.1343 16.4197 72.3034 14.7738 70.8119 13.5167C69.3311 12.2596 67.4134 11.631 65.059 11.631C63.4717 11.631 62.0601 11.924 60.8243 12.5099C59.5885 13.0959 58.6191 13.8949 57.9159 14.907C57.2128 15.919 56.8612 17.0803 56.8612 18.3906C56.8612 19.2322 57.021 19.994 57.3406 20.6758C57.6709 21.3469 58.1343 21.9489 58.7309 22.4815C59.3275 23.0036 60.036 23.4616 60.8563 23.8558C61.6766 24.25 62.5821 24.5962 63.5729 24.8945L67.1524 25.9492C68.3776 26.3221 69.5068 26.7536 70.5402 27.2436C71.5843 27.7337 72.4898 28.3196 73.2568 29.0014C74.0345 29.6726 74.6365 30.4609 75.0626 31.3665C75.4994 32.272 75.7178 33.3161 75.7178 34.4986C75.7178 36.2244 75.2703 37.7692 74.3754 39.1328C73.4912 40.4964 72.2288 41.5724 70.5882 42.3608C68.9582 43.1385 67.0352 43.5273 64.8193 43.5273C62.71 43.5273 60.8722 43.1705 59.3062 42.4567C57.7508 41.7429 56.5203 40.7521 55.6148 39.4844C54.7093 38.206 54.1979 36.7358 54.0807 35.0739H56.1262C56.2327 36.4268 56.6642 37.5987 57.4205 38.5895C58.1876 39.5696 59.205 40.326 60.4727 40.8587C61.7405 41.3913 63.1894 41.6577 64.8193 41.6577C66.5771 41.6577 68.1272 41.3594 69.4696 40.7628C70.8119 40.1555 71.8612 39.3139 72.6176 38.2379C73.374 37.1619 73.7522 35.9102 73.7522 34.4826C73.7522 33.332 73.4806 32.3466 72.9372 31.5263C72.3939 30.706 71.5896 29.9975 70.5242 29.4009C69.4696 28.8043 68.1592 28.2717 66.5931 27.8029L62.7739 26.6523C60.2171 25.8746 58.2622 24.8146 56.9092 23.4723C55.5669 22.13 54.8957 20.4574 54.8957 18.4545C54.8957 16.7713 55.3431 15.2798 56.238 13.9801C57.1329 12.6697 58.3474 11.6417 59.8815 10.896C61.4262 10.1502 63.1681 9.77734 65.107 9.77734C67.0566 9.77734 68.7771 10.1555 70.2686 10.9119C71.76 11.6577 72.9426 12.6857 73.8161 13.9961C74.6897 15.2958 75.1744 16.782 75.2703 18.4545H73.3048ZM83.6119 43V10.2727H85.6095V25.6935H105.329V10.2727H107.326V43H105.329V27.5472H85.6095V43H83.6119ZM118.788 10.2727V43H116.791V10.2727H118.788ZM154.292 26.6364C154.292 30.0135 153.706 32.9645 152.534 35.4893C151.362 38.0036 149.732 39.9585 147.644 41.354C145.567 42.7496 143.17 43.4474 140.453 43.4474C137.726 43.4474 135.318 42.7496 133.23 41.354C131.153 39.9478 129.528 37.9876 128.356 35.4734C127.184 32.9485 126.598 30.0028 126.598 26.6364C126.598 23.2592 127.184 20.3136 128.356 17.7994C129.539 15.2852 131.169 13.3303 133.246 11.9347C135.324 10.5284 137.726 9.82528 140.453 9.82528C143.17 9.82528 145.567 10.5231 147.644 11.9187C149.732 13.3143 151.362 15.2745 152.534 17.7994C153.706 20.3136 154.292 23.2592 154.292 26.6364ZM152.342 26.6364C152.342 23.6001 151.831 20.9688 150.808 18.7422C149.796 16.5156 148.395 14.7951 146.606 13.5806C144.816 12.3555 142.765 11.7429 140.453 11.7429C138.141 11.7429 136.091 12.3501 134.301 13.5646C132.511 14.7685 131.105 16.489 130.082 18.7262C129.07 20.9528 128.564 23.5895 128.564 26.6364C128.564 29.6513 129.065 32.2773 130.066 34.5146C131.078 36.7411 132.479 38.467 134.269 39.6921C136.059 40.9173 138.12 41.5298 140.453 41.5298C142.765 41.5298 144.816 40.9226 146.606 39.7081C148.395 38.483 149.796 36.7571 150.808 34.5305C151.831 32.304 152.342 29.6726 152.342 26.6364ZM187.107 10.2727V43H185.158L164.288 13.9002H164.096V43H162.098V10.2727H164.064L184.934 39.4045H185.126V10.2727H187.107Z" fill="white"/>
<path d="M185.477 43V10.2727H193.387V36.576H207.002V43H185.477ZM218.616 43H210.114L221.157 10.2727H231.687L242.73 43H234.228L226.542 18.5185H226.286L218.616 43ZM217.481 30.12H235.251V36.1286H217.481V30.12ZM246.253 43V10.2727H259.9C262.351 10.2727 264.401 10.619 266.053 11.3114C267.715 12.0039 268.961 12.9734 269.792 14.2198C270.634 15.4663 271.054 16.9098 271.054 18.5504C271.054 19.7969 270.793 20.9102 270.271 21.8903C269.749 22.8597 269.03 23.6641 268.114 24.3033C267.198 24.9425 266.138 25.3899 264.934 25.6456V25.9652C266.255 26.0291 267.475 26.386 268.593 27.0359C269.723 27.6857 270.628 28.5913 271.31 29.7525C271.992 30.9031 272.333 32.2667 272.333 33.8434C272.333 35.6012 271.885 37.1726 270.991 38.5575C270.096 39.9318 268.801 41.0185 267.107 41.8175C265.413 42.6058 263.357 43 260.939 43H246.253ZM254.163 36.6239H259.053C260.769 36.6239 262.031 36.299 262.841 35.6491C263.661 34.9993 264.071 34.0938 264.071 32.9325C264.071 32.0909 263.874 31.3665 263.48 30.7592C263.086 30.1413 262.526 29.6673 261.802 29.337C261.078 28.9961 260.209 28.8256 259.197 28.8256H254.163V36.6239ZM254.163 23.728H258.542C259.405 23.728 260.172 23.5842 260.843 23.2965C261.514 23.0089 262.036 22.5934 262.409 22.0501C262.793 21.5067 262.984 20.8516 262.984 20.0845C262.984 18.9872 262.596 18.1243 261.818 17.4957C261.04 16.8672 259.991 16.5529 258.67 16.5529H254.163V23.728ZM293.826 20.0845C293.72 18.9126 293.245 18.0018 292.404 17.3519C291.573 16.6914 290.385 16.3612 288.84 16.3612C287.818 16.3612 286.965 16.4943 286.283 16.7607C285.602 17.027 285.09 17.3945 284.749 17.8633C284.408 18.3214 284.233 18.8487 284.222 19.4453C284.201 19.9354 284.297 20.3668 284.51 20.7397C284.733 21.1126 285.053 21.4428 285.468 21.7305C285.895 22.0075 286.406 22.2525 287.003 22.4656C287.599 22.6786 288.27 22.8651 289.016 23.0249L291.829 23.6641C293.448 24.0156 294.875 24.4844 296.111 25.0703C297.358 25.6562 298.402 26.354 299.243 27.1637C300.096 27.9734 300.74 28.9055 301.177 29.9602C301.614 31.0149 301.837 32.1974 301.848 33.5078C301.837 35.5746 301.315 37.3484 300.282 38.8292C299.249 40.31 297.763 41.4446 295.824 42.233C293.895 43.0213 291.568 43.4155 288.84 43.4155C286.102 43.4155 283.716 43.0053 281.681 42.185C279.646 41.3647 278.064 40.1183 276.935 38.4457C275.806 36.7731 275.225 34.6584 275.193 32.1016H282.768C282.832 33.1562 283.114 34.0352 283.615 34.7383C284.116 35.4414 284.803 35.9741 285.676 36.3363C286.56 36.6985 287.583 36.8796 288.744 36.8796C289.81 36.8796 290.715 36.7358 291.461 36.4482C292.217 36.1605 292.798 35.761 293.203 35.2496C293.608 34.7383 293.815 34.1523 293.826 33.4918C293.815 32.8739 293.624 32.3466 293.251 31.9098C292.878 31.4624 292.303 31.0788 291.525 30.7592C290.758 30.429 289.778 30.1254 288.585 29.8484L285.165 29.0494C282.331 28.3995 280.099 27.3501 278.469 25.9013C276.839 24.4418 276.03 22.4709 276.04 19.9886C276.03 17.9645 276.573 16.1907 277.67 14.6673C278.767 13.1438 280.286 11.956 282.225 11.1037C284.163 10.2514 286.374 9.82528 288.856 9.82528C291.392 9.82528 293.592 10.2567 295.456 11.1197C297.331 11.9719 298.785 13.1705 299.819 14.7152C300.852 16.2599 301.379 18.0497 301.401 20.0845H293.826Z" fill="white"/>
</svg>
