<svg width="272" height="54" viewBox="0 0 272 54" fill="none" xmlns="http://www.w3.org/2000/svg">
<path d="M4.73011 43V10.2727H22.9954V12.1264H6.72763V25.6935H21.4773V27.5472H6.72763V43H4.73011ZM21.248 43H19.1386L30.9479 10.2727H33.249L45.0583 43H42.949L32.1784 12.8455H32.0186L21.248 43ZM24.2362 30.6793H39.9607V32.533H24.2362V30.6793ZM64.3048 18.4545C64.1343 16.4197 63.3034 14.7738 61.8119 13.5167C60.3311 12.2596 58.4134 11.631 56.059 11.631C54.4717 11.631 53.0601 11.924 51.8243 12.5099C50.5885 13.0959 49.6191 13.8949 48.9159 14.907C48.2128 15.919 47.8612 17.0803 47.8612 18.3906C47.8612 19.2322 48.021 19.994 48.3406 20.6758C48.6709 21.3469 49.1343 21.9489 49.7309 22.4815C50.3275 23.0036 51.036 23.4616 51.8563 23.8558C52.6766 24.25 53.5821 24.5962 54.5729 24.8945L58.1524 25.9492C59.3776 26.3221 60.5068 26.7536 61.5402 27.2436C62.5843 27.7337 63.4898 28.3196 64.2568 29.0014C65.0345 29.6726 65.6365 30.4609 66.0626 31.3665C66.4994 32.272 66.7178 33.3161 66.7178 34.4986C66.7178 36.2244 66.2703 37.7692 65.3754 39.1328C64.4912 40.4964 63.2288 41.5724 61.5882 42.3608C59.9582 43.1385 58.0352 43.5273 55.8193 43.5273C53.71 43.5273 51.8722 43.1705 50.3062 42.4567C48.7508 41.7429 47.5203 40.7521 46.6148 39.4844C45.7093 38.206 45.1979 36.7358 45.0807 35.0739H47.1262C47.2327 36.4268 47.6642 37.5987 48.4205 38.5895C49.1876 39.5696 50.205 40.326 51.4727 40.8587C52.7405 41.3913 54.1894 41.6577 55.8193 41.6577C57.5771 41.6577 59.1272 41.3594 60.4696 40.7628C61.8119 40.1555 62.8612 39.3139 63.6176 38.2379C64.374 37.1619 64.7522 35.9102 64.7522 34.4826C64.7522 33.332 64.4806 32.3466 63.9372 31.5263C63.3939 30.706 62.5896 29.9975 61.5242 29.4009C60.4696 28.8043 59.1592 28.2717 57.5931 27.8029L53.7739 26.6523C51.2171 25.8746 49.2622 24.8146 47.9092 23.4723C46.5669 22.13 45.8957 20.4574 45.8957 18.4545C45.8957 16.7713 46.3431 15.2798 47.238 13.9801C48.1329 12.6697 49.3474 11.6417 50.8815 10.896C52.4262 10.1502 54.1681 9.77734 56.107 9.77734C58.0566 9.77734 59.7771 10.1555 61.2686 10.9119C62.76 11.6577 63.9426 12.6857 64.8161 13.9961C65.6897 15.2958 66.1744 16.782 66.2703 18.4545H64.3048ZM70.1119 43V10.2727H72.1095V25.6935H91.8289V10.2727H93.8264V43H91.8289V27.5472H72.1095V43H70.1119ZM100.788 10.2727V43H98.7907V10.2727H100.788ZM131.792 26.6364C131.792 30.0135 131.206 32.9645 130.034 35.4893C128.862 38.0036 127.232 39.9585 125.144 41.354C123.067 42.7496 120.67 43.4474 117.953 43.4474C115.226 43.4474 112.818 42.7496 110.73 41.354C108.653 39.9478 107.028 37.9876 105.856 35.4734C104.684 32.9485 104.098 30.0028 104.098 26.6364C104.098 23.2592 104.684 20.3136 105.856 17.7994C107.039 15.2852 108.669 13.3303 110.746 11.9347C112.824 10.5284 115.226 9.82528 117.953 9.82528C120.67 9.82528 123.067 10.5231 125.144 11.9187C127.232 13.3143 128.862 15.2745 130.034 17.7994C131.206 20.3136 131.792 23.2592 131.792 26.6364ZM129.842 26.6364C129.842 23.6001 129.331 20.9688 128.308 18.7422C127.296 16.5156 125.895 14.7951 124.106 13.5806C122.316 12.3555 120.265 11.7429 117.953 11.7429C115.641 11.7429 113.591 12.3501 111.801 13.5646C110.011 14.7685 108.605 16.489 107.582 18.7262C106.57 20.9528 106.064 23.5895 106.064 26.6364C106.064 29.6513 106.565 32.2773 107.566 34.5146C108.578 36.7411 109.979 38.467 111.769 39.6921C113.559 40.9173 115.62 41.5298 117.953 41.5298C120.265 41.5298 122.316 40.9226 124.106 39.7081C125.895 38.483 127.296 36.7571 128.308 34.5305C129.331 32.304 129.842 29.6726 129.842 26.6364ZM160.107 10.2727V43H158.158L137.288 13.9002H137.096V43H135.098V10.2727H137.064L157.934 39.4045H158.126V10.2727H160.107Z" fill="black"/>
<path d="M159.109 43V10.2727H167.994V35.8409H181.226V43H159.109ZM191.069 43H181.481L192.283 10.2727H204.428L215.231 43H205.643L198.484 19.2855H198.228L191.069 43ZM189.279 30.0881H207.305V36.7358H189.279V30.0881ZM216.133 43V10.2727H230.323C232.816 10.2727 234.909 10.6083 236.603 11.2795C238.308 11.9506 239.592 12.8988 240.455 14.1239C241.328 15.3491 241.765 16.7926 241.765 18.4545C241.765 19.6584 241.499 20.7557 240.966 21.7464C240.444 22.7372 239.709 23.5682 238.761 24.2393C237.813 24.8999 236.705 25.358 235.437 25.6136V25.9332C236.843 25.9865 238.121 26.3434 239.272 27.0039C240.423 27.6538 241.339 28.554 242.021 29.7045C242.702 30.8445 243.043 32.1868 243.043 33.7315C243.043 35.5213 242.575 37.114 241.637 38.5096C240.71 39.9052 239.389 41.0025 237.674 41.8015C235.959 42.6005 233.913 43 231.538 43H216.133ZM225.018 35.9048H229.173C230.664 35.9048 231.783 35.6278 232.528 35.0739C233.274 34.5092 233.647 33.6783 233.647 32.581C233.647 31.8139 233.471 31.1641 233.12 30.6314C232.768 30.0987 232.267 29.6939 231.618 29.4169C230.978 29.1399 230.206 29.0014 229.3 29.0014H225.018V35.9048ZM225.018 23.5043H228.661C229.439 23.5043 230.126 23.3817 230.723 23.1367C231.319 22.8917 231.783 22.5401 232.113 22.082C232.454 21.6133 232.624 21.0433 232.624 20.3722C232.624 19.3601 232.262 18.5877 231.538 18.055C230.813 17.5117 229.897 17.2401 228.789 17.2401H225.018V23.5043ZM261.583 20.5C261.498 19.4347 261.099 18.6037 260.385 18.0071C259.682 17.4105 258.611 17.1122 257.173 17.1122C256.257 17.1122 255.506 17.2241 254.92 17.4478C254.344 17.6609 253.918 17.9538 253.641 18.3267C253.364 18.6996 253.221 19.1257 253.21 19.6051C253.189 19.9993 253.258 20.3562 253.418 20.6758C253.588 20.9847 253.854 21.267 254.217 21.5227C254.579 21.7678 255.042 21.9915 255.607 22.1939C256.172 22.3963 256.843 22.5774 257.62 22.7372L260.305 23.3125C262.116 23.696 263.666 24.2021 264.955 24.8306C266.244 25.4592 267.299 26.1996 268.119 27.0518C268.94 27.8935 269.542 28.8416 269.925 29.8963C270.319 30.951 270.522 32.1016 270.532 33.348C270.522 35.5 269.984 37.3217 268.918 38.8132C267.853 40.3047 266.33 41.4393 264.348 42.217C262.377 42.9947 260.007 43.3835 257.237 43.3835C254.392 43.3835 251.91 42.9627 249.79 42.1211C247.681 41.2795 246.04 39.9851 244.868 38.2379C243.707 36.4801 243.121 34.2322 243.11 31.4943H251.548C251.601 32.4957 251.852 33.3374 252.299 34.0192C252.746 34.701 253.375 35.2177 254.185 35.5692C255.005 35.9208 255.98 36.0966 257.109 36.0966C258.057 36.0966 258.851 35.9794 259.49 35.745C260.129 35.5107 260.614 35.1857 260.944 34.7702C261.275 34.3548 261.445 33.8807 261.456 33.348C261.445 32.8473 261.28 32.4105 260.96 32.0376C260.651 31.6541 260.14 31.3132 259.426 31.0149C258.712 30.706 257.748 30.4183 256.534 30.152L253.274 29.4489C250.376 28.8203 248.091 27.771 246.418 26.3008C244.756 24.82 243.931 22.8011 243.941 20.2443C243.931 18.1669 244.485 16.3505 245.603 14.7951C246.733 13.229 248.293 12.0092 250.286 11.1357C252.288 10.2621 254.584 9.82528 257.173 9.82528C259.815 9.82528 262.1 10.2674 264.028 11.1516C265.957 12.0359 267.443 13.2823 268.487 14.891C269.542 16.489 270.074 18.3587 270.085 20.5H261.583Z" fill="black"/>
</svg>
